<?xml version="1.0"?>
<svg xmlns="http://www.w3.org/2000/svg" viewBox="0 0 64 64" width="512" height="512"><g id="outline"><path d="M41,16c2.763,0,4-3.014,4-6,0-2.767-1.233-4-4-4s-4,1.233-4,4C37,12.986,38.237,16,41,16Zm0-8c1.663,0,2,.336,2,2,0,1.608-.532,4-2,4s-2-2.392-2-4C39,8.336,39.337,8,41,8Z"/><path d="M29,62c9.848,0,15-6.54,15-13V31.816A2.972,2.972,0,0,0,45.22,27,2.972,2.972,0,0,0,44,22.184v-1.9c.465-.742.986-1.485,1.493-2.2C47.217,15.625,49,13.088,49,10c0-4.971-2.956-7.962-7.906-8h-.066a7.91,7.91,0,0,0-7.487,5.061c-1.638,4.466.7,7.8,2.966,11.018.507.72,1.028,1.463,1.493,2.2v1.9A2.972,2.972,0,0,0,36.78,27,2.972,2.972,0,0,0,38,31.816V49c0,4.835-4.521,7-9,7-4.411,0-8-4.038-8-9V43h3a1,1,0,0,0,.707-1.707l-8-8A1,1,0,0,0,15,34V47C15,55.271,21.28,62,29,62ZM35.418,7.749A5.975,5.975,0,0,1,41.078,4C44.9,4.029,47,6.16,47,10c0,2.456-1.527,4.628-3.144,6.929-.578.823-1.176,1.674-1.71,2.551L42,19.719V22H40V19.719l-.146-.239c-.534-.877-1.132-1.728-1.71-2.551C36,13.873,34.142,11.233,35.418,7.749ZM39,24h4a1,1,0,0,1,0,2H39a1,1,0,0,1,0-2Zm0,4h4a1,1,0,0,1,0,2H39a1,1,0,0,1,0-2ZM17,36.414,21.586,41H20a1,1,0,0,0-1,1v5c0,6.065,4.486,11,10,11,6.477,0,11-3.7,11-9V32h2V49c0,7.222-6.54,11-13,11-6.617,0-12-5.832-12-13Z"/></g></svg>
